<svg width="172" height="24" viewBox="0 0 172 24" fill="none" xmlns="http://www.w3.org/2000/svg">
<path d="M0 20.4H20V0.4H0V20.4ZM30.1303 19.1918C29.2732 19.1918 28.5062 18.9716 27.8291 18.5312C27.152 18.0909 26.617 17.4517 26.224 16.6136C25.831 15.7756 25.6345 14.7576 25.6345 13.5597C25.6345 12.3475 25.8334 11.3248 26.2311 10.4915C26.6336 9.65341 27.1757 9.02131 27.8575 8.59517C28.5393 8.1643 29.2993 7.94886 30.1374 7.94886C30.7766 7.94886 31.3021 8.05777 31.7141 8.27557C32.126 8.48864 32.4527 8.74669 32.6942 9.04972C32.9357 9.34801 33.1227 9.62973 33.2553 9.89489H33.3618V4.45455H35.9399V19H33.4115V17.2812H33.2553C33.1227 17.5464 32.9309 17.8281 32.68 18.1264C32.429 18.42 32.0976 18.6709 31.6857 18.8793C31.2737 19.0876 30.7553 19.1918 30.1303 19.1918ZM30.8476 17.0824C31.3921 17.0824 31.8561 16.9356 32.2396 16.642C32.6232 16.3437 32.9143 15.9295 33.1132 15.3991C33.3121 14.8688 33.4115 14.2509 33.4115 13.5455C33.4115 12.84 33.3121 12.2268 33.1132 11.706C32.9191 11.1851 32.6303 10.7803 32.2467 10.4915C31.8679 10.2027 31.4016 10.0582 30.8476 10.0582C30.2747 10.0582 29.7964 10.2074 29.4129 10.5057C29.0294 10.804 28.7406 11.2159 28.5464 11.7415C28.3523 12.267 28.2553 12.8684 28.2553 13.5455C28.2553 14.2273 28.3523 14.8357 28.5464 15.3707C28.7453 15.901 29.0365 16.3201 29.42 16.6278C29.8083 16.9309 30.2841 17.0824 30.8476 17.0824ZM43.4092 19.2131C42.3154 19.2131 41.3708 18.9858 40.5754 18.5312C39.7846 18.072 39.1762 17.4233 38.7501 16.5852C38.3239 15.7424 38.1109 14.7505 38.1109 13.6094C38.1109 12.4872 38.3239 11.5024 38.7501 10.6548C39.1809 9.80256 39.7823 9.13968 40.554 8.66619C41.3258 8.18797 42.2326 7.94886 43.2742 7.94886C43.9466 7.94886 44.581 8.05777 45.1776 8.27557C45.779 8.48864 46.3093 8.82008 46.7685 9.26989C47.2326 9.7197 47.5971 10.2926 47.8623 10.9886C48.1274 11.6799 48.26 12.5038 48.26 13.4602V14.2486H39.3183V12.5156H45.7955C45.7908 12.0232 45.6843 11.5852 45.4759 11.2017C45.2676 10.8134 44.9764 10.508 44.6023 10.2855C44.233 10.063 43.8022 9.9517 43.3097 9.9517C42.7842 9.9517 42.3225 10.0795 41.9248 10.3352C41.5271 10.5862 41.2169 10.9176 40.9944 11.3295C40.7766 11.7367 40.6653 12.1842 40.6606 12.6719V14.1847C40.6606 14.8191 40.7766 15.3636 41.0086 15.8182C41.2406 16.268 41.5649 16.6136 41.9816 16.8551C42.3983 17.0919 42.886 17.2102 43.4447 17.2102C43.8187 17.2102 44.1573 17.1581 44.4603 17.054C44.7633 16.9451 45.0261 16.7865 45.2487 16.5781C45.4712 16.3698 45.6393 16.1117 45.7529 15.804L48.1535 16.0739C48.002 16.7083 47.7131 17.2623 47.287 17.7358C46.8656 18.2045 46.3258 18.5691 45.6677 18.8295C45.0095 19.0852 44.2567 19.2131 43.4092 19.2131ZM52.9061 4.45455V19H50.3351V4.45455H52.9061ZM55.4499 19V8.09091H58.021V19H55.4499ZM56.7425 6.54261C56.3353 6.54261 55.985 6.40767 55.6914 6.13778C55.3978 5.86316 55.2511 5.53409 55.2511 5.15057C55.2511 4.76231 55.3978 4.43324 55.6914 4.16335C55.985 3.88873 56.3353 3.75142 56.7425 3.75142C57.1545 3.75142 57.5049 3.88873 57.7937 4.16335C58.0872 4.43324 58.234 4.76231 58.234 5.15057C58.234 5.53409 58.0872 5.86316 57.7937 6.13778C57.5049 6.40767 57.1545 6.54261 56.7425 6.54261ZM70.3091 8.09091L66.4241 19H63.5832L59.6983 8.09091H62.4398L64.9469 16.1946H65.0605L67.5747 8.09091H70.3091ZM76.4467 19.2131C75.3529 19.2131 74.4083 18.9858 73.6129 18.5312C72.8221 18.072 72.2137 17.4233 71.7876 16.5852C71.3614 15.7424 71.1484 14.7505 71.1484 13.6094C71.1484 12.4872 71.3614 11.5024 71.7876 10.6548C72.2184 9.80256 72.8198 9.13968 73.5916 8.66619C74.3633 8.18797 75.2701 7.94886 76.3117 7.94886C76.9841 7.94886 77.6185 8.05777 78.2151 8.27557C78.8165 8.48864 79.3468 8.82008 79.806 9.26989C80.2701 9.7197 80.6346 10.2926 80.8998 10.9886C81.1649 11.6799 81.2975 12.5038 81.2975 13.4602V14.2486H72.3558V12.5156H78.833C78.8283 12.0232 78.7218 11.5852 78.5134 11.2017C78.3051 10.8134 78.0139 10.508 77.6398 10.2855C77.2705 10.063 76.8397 9.9517 76.3472 9.9517C75.8217 9.9517 75.36 10.0795 74.9623 10.3352C74.5646 10.5862 74.2544 10.9176 74.0319 11.3295C73.8141 11.7367 73.7028 12.1842 73.6981 12.6719V14.1847C73.6981 14.8191 73.8141 15.3636 74.0461 15.8182C74.2781 16.268 74.6024 16.6136 75.0191 16.8551C75.4358 17.0919 75.9235 17.2102 76.4822 17.2102C76.8562 17.2102 77.1948 17.1581 77.4978 17.054C77.8008 16.9451 78.0636 16.7865 78.2862 16.5781C78.5087 16.3698 78.6768 16.1117 78.7904 15.804L81.191 16.0739C81.0395 16.7083 80.7506 17.2623 80.3245 17.7358C79.9031 18.2045 79.3633 18.5691 78.7052 18.8295C78.047 19.0852 77.2942 19.2131 76.4467 19.2131ZM83.3726 19V8.09091H85.8655V9.90909H85.9791C86.178 9.27936 86.5189 8.79403 87.0018 8.45312C87.4895 8.10748 88.0459 7.93466 88.6709 7.93466C88.8129 7.93466 88.9715 7.94176 89.1467 7.95597C89.3267 7.96544 89.4758 7.98201 89.5942 8.00568V10.3707C89.4853 10.3329 89.3125 10.2997 89.0757 10.2713C88.8437 10.2382 88.6188 10.2216 88.401 10.2216C87.9322 10.2216 87.5108 10.3234 87.1368 10.527C86.7675 10.7259 86.4763 11.0028 86.2632 11.358C86.0501 11.7131 85.9436 12.1226 85.9436 12.5866V19H83.3726ZM93.1323 23.0909C92.7819 23.0909 92.4576 23.0625 92.1593 23.0057C91.8657 22.9536 91.6314 22.892 91.4562 22.821L92.0528 20.8182C92.4268 20.9271 92.7606 20.9792 93.0542 20.9744C93.3477 20.9697 93.6058 20.8774 93.8283 20.6974C94.0556 20.5223 94.2474 20.2287 94.4036 19.8168L94.6238 19.2273L90.6678 8.09091H93.3951L95.9093 16.3295H96.0229L98.5442 8.09091H101.279L96.9107 20.321C96.7071 20.8987 96.4372 21.3935 96.1011 21.8054C95.7649 22.2221 95.353 22.5393 94.8653 22.7571C94.3823 22.9796 93.8047 23.0909 93.1323 23.0909ZM120.929 11.7273C120.929 13.2945 120.636 14.6368 120.049 15.7543C119.466 16.867 118.671 17.7192 117.662 18.3111C116.659 18.9029 115.52 19.1989 114.246 19.1989C112.973 19.1989 111.831 18.9029 110.823 18.3111C109.819 17.7145 109.024 16.8598 108.437 15.7472C107.854 14.6297 107.563 13.2898 107.563 11.7273C107.563 10.16 107.854 8.82008 108.437 7.70739C109.024 6.58996 109.819 5.73532 110.823 5.14347C111.831 4.55161 112.973 4.25568 114.246 4.25568C115.52 4.25568 116.659 4.55161 117.662 5.14347C118.671 5.73532 119.466 6.58996 120.049 7.70739C120.636 8.82008 120.929 10.16 120.929 11.7273ZM118.28 11.7273C118.28 10.6241 118.108 9.69366 117.762 8.93608C117.421 8.17377 116.947 7.59848 116.341 7.21023C115.735 6.81723 115.037 6.62074 114.246 6.62074C113.456 6.62074 112.757 6.81723 112.151 7.21023C111.545 7.59848 111.069 8.17377 110.724 8.93608C110.383 9.69366 110.212 10.6241 110.212 11.7273C110.212 12.8305 110.383 13.7633 110.724 14.5256C111.069 15.2831 111.545 15.8584 112.151 16.2514C112.757 16.6397 113.456 16.8338 114.246 16.8338C115.037 16.8338 115.735 16.6397 116.341 16.2514C116.947 15.8584 117.421 15.2831 117.762 14.5256C118.108 13.7633 118.28 12.8305 118.28 11.7273ZM123.207 19V8.09091H125.7V9.90909H125.813C126.012 9.27936 126.353 8.79403 126.836 8.45312C127.324 8.10748 127.88 7.93466 128.505 7.93466C128.647 7.93466 128.806 7.94176 128.981 7.95597C129.161 7.96544 129.31 7.98201 129.429 8.00568V10.3707C129.32 10.3329 129.147 10.2997 128.91 10.2713C128.678 10.2382 128.453 10.2216 128.235 10.2216C127.767 10.2216 127.345 10.3234 126.971 10.527C126.602 10.7259 126.311 11.0028 126.098 11.358C125.885 11.7131 125.778 12.1226 125.778 12.5866V19H123.207ZM134.636 19.1918C133.779 19.1918 133.012 18.9716 132.335 18.5312C131.658 18.0909 131.122 17.4517 130.729 16.6136C130.336 15.7756 130.14 14.7576 130.14 13.5597C130.14 12.3475 130.339 11.3248 130.737 10.4915C131.139 9.65341 131.681 9.02131 132.363 8.59517C133.045 8.1643 133.805 7.94886 134.643 7.94886C135.282 7.94886 135.808 8.05777 136.22 8.27557C136.631 8.48864 136.958 8.74669 137.2 9.04972C137.441 9.34801 137.628 9.62973 137.761 9.89489H137.867V4.45455H140.445V19H137.917V17.2812H137.761C137.628 17.5464 137.436 17.8281 137.185 18.1264C136.934 18.42 136.603 18.6709 136.191 18.8793C135.779 19.0876 135.261 19.1918 134.636 19.1918ZM135.353 17.0824C135.898 17.0824 136.362 16.9356 136.745 16.642C137.129 16.3437 137.42 15.9295 137.619 15.3991C137.818 14.8688 137.917 14.2509 137.917 13.5455C137.917 12.84 137.818 12.2268 137.619 11.706C137.425 11.1851 137.136 10.7803 136.752 10.4915C136.373 10.2027 135.907 10.0582 135.353 10.0582C134.78 10.0582 134.302 10.2074 133.918 10.5057C133.535 10.804 133.246 11.2159 133.052 11.7415C132.858 12.267 132.761 12.8684 132.761 13.5455C132.761 14.2273 132.858 14.8357 133.052 15.3707C133.251 15.901 133.542 16.3201 133.925 16.6278C134.314 16.9309 134.79 17.0824 135.353 17.0824ZM147.915 19.2131C146.821 19.2131 145.876 18.9858 145.081 18.5312C144.29 18.072 143.682 17.4233 143.256 16.5852C142.829 15.7424 142.616 14.7505 142.616 13.6094C142.616 12.4872 142.829 11.5024 143.256 10.6548C143.686 9.80256 144.288 9.13968 145.06 8.66619C145.831 8.18797 146.738 7.94886 147.78 7.94886C148.452 7.94886 149.087 8.05777 149.683 8.27557C150.284 8.48864 150.815 8.82008 151.274 9.26989C151.738 9.7197 152.103 10.2926 152.368 10.9886C152.633 11.6799 152.765 12.5038 152.765 13.4602V14.2486H143.824V12.5156H150.301C150.296 12.0232 150.19 11.5852 149.981 11.2017C149.773 10.8134 149.482 10.508 149.108 10.2855C148.739 10.063 148.308 9.9517 147.815 9.9517C147.29 9.9517 146.828 10.0795 146.43 10.3352C146.033 10.5862 145.722 10.9176 145.5 11.3295C145.282 11.7367 145.171 12.1842 145.166 12.6719V14.1847C145.166 14.8191 145.282 15.3636 145.514 15.8182C145.746 16.268 146.07 16.6136 146.487 16.8551C146.904 17.0919 147.391 17.2102 147.95 17.2102C148.324 17.2102 148.663 17.1581 148.966 17.054C149.269 16.9451 149.532 16.7865 149.754 16.5781C149.977 16.3698 150.145 16.1117 150.258 15.804L152.659 16.0739C152.507 16.7083 152.219 17.2623 151.792 17.7358C151.371 18.2045 150.831 18.5691 150.173 18.8295C149.515 19.0852 148.762 19.2131 147.915 19.2131ZM154.841 19V8.09091H157.333V9.90909H157.447C157.646 9.27936 157.987 8.79403 158.47 8.45312C158.958 8.10748 159.514 7.93466 160.139 7.93466C160.281 7.93466 160.44 7.94176 160.615 7.95597C160.795 7.96544 160.944 7.98201 161.062 8.00568V10.3707C160.953 10.3329 160.78 10.2997 160.544 10.2713C160.312 10.2382 160.087 10.2216 159.869 10.2216C159.4 10.2216 158.979 10.3234 158.605 10.527C158.235 10.7259 157.944 11.0028 157.731 11.358C157.518 11.7131 157.412 12.1226 157.412 12.5866V19H154.841ZM171.292 10.9744L168.949 11.2301C168.882 10.9934 168.766 10.7708 168.601 10.5625C168.44 10.3542 168.222 10.1861 167.947 10.0582C167.673 9.9304 167.336 9.86648 166.939 9.86648C166.404 9.86648 165.954 9.98248 165.589 10.2145C165.229 10.4465 165.052 10.7472 165.057 11.1165C165.052 11.4337 165.168 11.6918 165.405 11.8906C165.646 12.0895 166.044 12.2528 166.598 12.3807L168.459 12.7784C169.491 13.0009 170.258 13.3537 170.76 13.8366C171.266 14.3196 171.522 14.9517 171.527 15.733C171.522 16.4195 171.321 17.0256 170.923 17.5511C170.53 18.072 169.983 18.4792 169.282 18.7727C168.582 19.0663 167.777 19.2131 166.868 19.2131C165.532 19.2131 164.458 18.9337 163.643 18.375C162.829 17.8116 162.344 17.0279 162.187 16.0241L164.694 15.7827C164.808 16.2751 165.049 16.6468 165.419 16.8977C165.788 17.1487 166.269 17.2741 166.861 17.2741C167.471 17.2741 167.961 17.1487 168.331 16.8977C168.705 16.6468 168.892 16.3366 168.892 15.9673C168.892 15.6548 168.771 15.3968 168.53 15.1932C168.293 14.9896 167.924 14.8333 167.422 14.7244L165.561 14.3338C164.514 14.116 163.74 13.7491 163.238 13.233C162.737 12.7121 162.488 12.054 162.493 11.2585C162.488 10.5862 162.67 10.0038 163.04 9.51136C163.414 9.0142 163.932 8.63068 164.595 8.3608C165.263 8.08617 166.032 7.94886 166.903 7.94886C168.182 7.94886 169.188 8.22112 169.922 8.76562C170.66 9.31013 171.117 10.0464 171.292 10.9744Z" fill="white"/>
</svg>
